<!-- Generated by IcoMoon.io -->
<svg version="1.1" xmlns="http://www.w3.org/2000/svg" width="1272" height="1024" viewBox="0 0 1272 1024">
<title>logo</title>
<g id="icomoon-ignore">
</g>
<path fill="#000" d="M306.816 23.936c-0.512 0.384-0.896 76.416-0.896 168.96v168.064h7.68v-330.24l648.32 0.64 0.384 164.736 0.256 164.864h6.4v-337.92h-330.624c-181.888 0-331.136 0.384-331.52 0.896z"></path>
<path fill="#000" d="M532.48 181.12l-36.48 36.608 33.536 32.896c18.432 18.048 35.072 34.432 37.12 36.48l3.712 3.456 9.216-9.216 9.216-9.344-54.4-54.4 55.040-55.040-8.96-8.96c-4.864-4.864-9.472-8.96-10.24-8.96-0.64 0-17.664 16.384-37.76 36.48z"></path>
<path fill="#000" d="M690.56 153.6l-8.832 9.088 54.912 54.912-54.4 54.4 9.6 9.6 9.6 9.472 36.736-36.736 36.864-36.736-36.48-36.48c-20.096-20.096-36.992-36.48-37.76-36.48-0.64 0-5.248 4.096-10.24 8.96z"></path>
<path fill="#000" d="M365.056 500.096c0.384 59.648 0.384 59.904 3.328 65.92 3.456 6.912 10.624 11.264 18.56 11.264 4.736 0 4.736 0 4.736-5.504 0-5.376-0.128-5.632-4.992-7.040-9.088-2.816-9.088-2.56-9.088-67.328v-57.088h-12.928l0.384 59.776z"></path>
<path fill="#000" d="M551.68 508.16v67.84h12.672l0.768-38.912 8.32-4.736c5.12-3.072 8.704-4.352 9.6-3.712 0.768 0.64 9.472 11.52 19.2 24.192l17.92 23.040 7.424 0.128c3.968 0 7.296-0.512 7.296-1.024 0-1.28-4.096-6.912-14.848-20.352-19.072-23.552-27.136-34.176-26.624-35.2 0.256-0.512 9.088-8.192 19.456-17.024 10.368-8.96 19.072-16.768 19.2-17.408 0.256-0.64-3.2-1.152-7.68-1.152h-8.064l-16 14.208c-13.696 12.16-32.768 26.752-35.2 26.752-0.384 0-0.64-19.072-0.64-42.24v-42.24h-12.8v67.84z"></path>
<path fill="#000" d="M1122.56 467.2c0 12.672-0.256 23.040-0.512 23.040s-3.584-1.408-7.296-3.072c-20.352-9.344-44.928-5.632-59.392 8.832-8.576 8.576-12.544 17.92-13.184 31.36-1.536 30.976 13.824 48.64 43.776 50.816 10.496 0.768 30.848-0.896 42.88-3.584l6.528-1.408v-129.024h-12.8v23.040zM1107.2 495.232c3.584 1.408 8.576 3.968 11.008 5.888l4.352 3.328v29.312c0 28.544-0.128 29.44-2.688 30.848-3.328 1.792-29.312 3.072-37.376 1.92-9.344-1.408-19.456-8.832-23.68-17.408-2.944-6.016-3.456-8.576-3.456-18.56 0-10.24 0.384-12.416 3.84-19.2 4.096-7.936 12.032-14.72 20.352-17.152 7.168-2.048 20.736-1.536 27.648 1.024z"></path>
<path fill="#000" d="M124.16 455.424c-2.944 0.384-4.096 2.688-12.032 23.040-34.432 88.448-32.896 84.736-34.688 84.736-1.024 0-7.68-15.104-16-36.224-7.808-19.84-17.536-44.032-21.376-53.76l-7.168-17.536h-6.784c-3.84 0-6.912 0.512-6.912 1.152 0 1.28 6.528 17.536 30.336 75.648l17.664 42.88 19.328 0.768 5.888-15.104c3.328-8.32 14.080-35.2 24.064-59.776 9.856-24.576 17.792-44.8 17.664-45.056-0.768-0.768-6.784-1.28-9.984-0.768z"></path>
<path fill="#000" d="M254.336 463.616c-1.792 4.48-13.056 30.848-25.088 58.624s-21.888 51.328-21.888 52.096c0 2.688 11.264 2.176 12.928-0.64 0.768-1.28 4.736-10.368 8.704-20.096l7.424-17.92h58.496l6.144 14.72c11.264 27.136 10.24 25.6 17.792 25.6 6.272 0 6.528-0.128 5.76-3.072-0.384-1.792-2.688-7.424-4.992-12.544-2.432-5.12-13.44-30.848-24.704-56.96l-20.352-47.744h-17.024l-3.2 7.936zM278.528 496.512c5.888 14.336 10.624 26.368 10.368 26.624-1.024 1.024-46.336 0.64-46.336-0.384 0-0.64 4.864-12.8 10.752-27.136 7.552-18.048 11.392-25.856 12.672-25.6 1.024 0.256 6.528 11.776 12.544 26.496z"></path>
<path fill="#000" d="M462.080 482.688c-15.104 2.56-28.672 12.672-35.328 26.24-3.328 6.912-3.584 8.832-3.712 21.632 0 12.544 0.384 14.848 3.328 21.248 9.216 19.712 27.392 28.288 54.784 26.24 11.904-0.896 25.216-3.584 27.264-5.632 1.792-1.792-0.64-9.856-2.944-9.6-1.024 0-5.504 1.152-9.856 2.304-9.6 2.56-28.16 2.944-35.712 0.768-13.184-3.712-22.4-14.080-24.192-27.392l-0.896-6.016h39.168c44.288 0 40.576 1.152 40.576-11.904 0-21.12-10.752-34.048-31.36-37.632-10.24-1.792-11.392-1.792-21.12-0.256zM486.784 494.848c7.808 2.688 13.184 9.088 14.976 18.048 0.768 3.712 1.152 7.296 0.64 8.064s-12.672 1.28-33.408 1.28c-27.392 0-32.768-0.256-33.28-1.92-0.384-1.024 0.768-4.992 2.432-8.832 3.456-7.424 10.752-13.824 19.2-17.024 6.016-2.176 22.528-2.048 29.44 0.384z"></path>
<path fill="#000" d="M694.4 482.432c-17.536 2.816-27.52 12.288-27.52 25.856 0 10.496 6.912 18.816 18.432 22.272 3.2 1.024 11.136 2.688 17.664 3.84 16 2.688 19.584 3.968 23.424 8.448 5.376 6.528 3.712 15.744-3.84 20.352-6.272 3.84-21.504 5.504-34.176 3.84-5.76-0.768-11.52-2.048-12.672-2.688-1.28-0.64-3.072-1.152-4.224-1.152-2.176 0-5.376 8.704-3.84 10.24 4.224 3.712 31.616 6.144 44.8 3.968 22.528-3.968 32.768-15.232 28.672-32.128-2.944-12.288-14.464-19.968-34.176-23.040-20.352-3.2-27.264-7.168-27.264-16 0-5.12 4.864-10.368 11.392-12.16 6.784-1.92 24.064-1.536 32.128 0.64 9.6 2.56 9.856 2.56 11.52-2.688 1.92-5.632 1.408-6.144-8.832-8.064-10.752-1.92-24.32-2.688-31.488-1.536z"></path>
<path fill="#000" d="M808.96 482.56c-3.84 0.64-10.368 2.176-14.464 3.456l-7.552 2.176 0.896 4.48c0.512 2.56 1.152 4.992 1.408 5.504s3.84-0.384 7.936-1.792c5.12-1.792 11.648-2.816 22.272-3.2 13.44-0.64 15.488-0.384 20.48 2.048 7.168 3.456 9.984 8.96 9.984 19.328v7.68h-13.056c-14.72 0.128-26.88 1.408-40.576 4.48-8.96 2.048-9.216 2.304-12.288 8.32-6.144 12.032-5.376 24.704 2.176 33.792 5.76 7.040 11.008 8.96 25.984 8.96 15.36 0 24.832-2.432 33.152-8.832 3.328-2.432 6.4-4.48 7.040-4.48s1.536 2.048 1.92 4.48c1.408 7.552 9.088 11.264 18.304 8.832 5.76-1.536 4.992-9.088-1.024-10.368-7.424-1.408-7.68-2.56-8.32-34.304-0.384-24.704-0.896-29.824-2.816-34.304-3.456-7.552-8.448-12.032-16.128-14.464-7.936-2.432-25.856-3.328-35.328-1.792zM849.664 542.208l0.384 11.52-5.76 4.096c-7.808 5.632-13.184 7.68-23.808 9.216-10.88 1.536-18.944 0-23.168-4.608-4.224-4.48-4.864-17.408-1.28-23.040 2.176-3.584 3.584-4.224 11.264-5.632 9.984-1.792 29.312-3.584 36.864-3.328l5.12 0.128 0.384 11.648z"></path>
<path fill="#000" d="M954.24 482.688c-9.6 1.536-15.616 4.48-22.4 10.88l-6.144 5.76-1.792-15.616-10.624 0.768 0.128 45.44v45.44h12.672l0.64-32c0.64-31.616 0.64-32 3.84-36.224 3.968-5.376 13.056-11.392 19.712-13.184 2.944-0.768 9.6-1.152 14.976-0.896 11.776 0.64 16.128 3.328 20.608 12.288 2.816 5.76 2.944 7.424 3.328 38.272l0.384 32.384h12.928l-0.512-33.664c-0.512-31.488-0.64-33.92-3.456-39.936-5.248-11.648-12.672-17.152-26.368-19.712-8.32-1.536-8.832-1.536-17.92 0z"></path>
<path fill="#000" d="M1217.536 483.2c-8.832 2.432-13.056 4.736-18.816 10.24-2.688 2.432-4.992 4.48-5.248 4.48s-0.512-3.2-0.512-7.040v-7.040h-11.52v92.16h12.8v-63.744l6.016-6.656c7.68-8.576 16.384-12.8 26.24-12.8 8.192 0 13.184 1.536 17.28 5.376 2.048 1.92 3.2 2.176 5.12 1.152 7.68-4.096 6.656-8.96-2.816-13.568-8.576-4.224-19.2-5.12-28.544-2.56z"></path>
<path fill="#000" d="M151.808 559.616c-1.152 1.536-2.048 4.992-2.048 7.552 0 9.088 10.88 13.44 17.28 6.912 3.968-3.84 4.096-9.344 0.512-13.952-3.584-4.48-12.8-4.864-15.744-0.512z"></path>
<path fill="#000" d="M305.92 814.080v168.96l663.68-0.64v-336.64l-3.456-0.384-3.584-0.384v330.368h-648.96v-330.24h-7.68v168.96z"></path>
<path fill="#000" d="M413.824 822.656c-2.944 1.152-1.92 6.4 1.28 7.168 1.536 0.512 102.272 0.768 223.744 0.768 236.416 0 228.096 0.256 224.384-5.888-1.408-2.176-10.752-2.304-224.64-2.56-122.752-0.128-224 0.128-224.768 0.512z"></path>
<path fill="#000" d="M596.992 858.112c-3.456 2.56-4.736 6.784-2.176 7.68 3.072 1.28 4.224 0.896 4.224-1.152 0-3.072 3.968-3.968 5.888-1.408 1.92 2.688 1.152 5.376-2.688 9.728-4.352 4.864-9.6 12.928-9.6 14.848 0 1.408 2.304 1.792 9.6 1.792 8.704 0 9.6-0.256 9.6-2.56 0-2.176-0.896-2.56-5.888-2.56h-5.888l4.608-5.376c2.56-2.944 5.376-7.552 6.144-10.24 1.28-4.352 1.152-5.376-1.152-8.448-2.944-4.096-8.704-5.12-12.672-2.304z"></path>
<path fill="#000" d="M619.008 858.752c-7.68 8.448-3.968 30.848 4.992 30.848 5.632 0 8.32-5.504 8.32-16.64 0-8.064-0.512-10.496-2.688-13.312-3.072-3.968-7.552-4.352-10.624-0.896zM626.944 872.704c0.256 8.704 0 10.624-1.664 11.264-3.584 1.408-4.992-1.664-4.864-10.88 0.128-9.856 0.896-12.032 3.968-11.392 1.792 0.384 2.304 2.304 2.56 11.008z"></path>
<path fill="#000" d="M640.384 858.24c-3.328 2.304-4.608 6.656-2.048 7.552 3.072 1.28 4.224 0.896 4.224-1.152 0-3.072 3.968-3.968 5.888-1.408 1.92 2.688 1.152 5.376-2.688 9.728-4.352 4.864-9.6 12.928-9.6 14.848 0 1.408 2.304 1.792 9.6 1.792 8.704 0 9.6-0.256 9.6-2.56 0-2.176-0.896-2.56-5.888-2.56h-5.888l4.096-4.736c2.304-2.56 4.992-6.656 6.016-9.088 4.096-9.856-4.864-18.304-13.312-12.416z"></path>
<path fill="#000" d="M662.144 858.24c-3.328 2.304-4.608 6.656-2.048 7.552 3.072 1.28 4.224 0.896 4.224-1.152 0-3.072 3.968-3.968 5.888-1.408 1.92 2.688 1.152 5.376-2.688 9.728-4.352 4.864-9.6 12.928-9.6 14.848 0 1.408 2.304 1.792 9.6 1.792 8.704 0 9.6-0.256 9.6-2.56 0-2.176-0.896-2.56-5.888-2.56h-5.76l4.48-5.504c7.808-9.472 8.832-14.72 3.968-19.456-3.456-3.584-7.808-4.096-11.776-1.28z"></path>
</svg>
