<svg xmlns="http://www.w3.org/2000/svg" viewBox="0 0 40 32">
  <path d="M9.588.748c-.016.012-.028 2.388-.028 5.28v5.252h.24V.96l20.26.02.012 5.148.008 5.152h.2V.72H19.948C14.264.72 9.6.732 9.588.748z"/>
  <path d="M16.64 5.66 15.5 6.804l1.048 1.028a347.25 347.25 0 0 1 1.16 1.14l.116.108.288-.288.288-.292-1.7-1.7 1.72-1.72-.28-.28c-.152-.152-.296-.28-.32-.28-.02 0-.552.512-1.18 1.14zM21.58 4.8l-.276.284L23.02 6.8l-1.7 1.7.3.3.3.296 1.148-1.148L24.22 6.8l-1.14-1.14c-.628-.628-1.156-1.14-1.18-1.14-.02 0-.164.128-.32.28zM11.408 15.628c.012 1.864.012 1.872.104 2.06a.645.645 0 0 0 .58.352c.148 0 .148 0 .148-.172 0-.168-.004-.176-.156-.22-.284-.088-.284-.08-.284-2.104V13.76h-.404l.012 1.868zM17.24 15.88V18h.396l.024-1.216.26-.148c.16-.096.272-.136.3-.116.024.02.296.36.6.756l.56.72.232.004c.124 0 .228-.016.228-.032 0-.04-.128-.216-.464-.636-.596-.736-.848-1.068-.832-1.1.008-.016.284-.256.608-.532.324-.28.596-.524.6-.544.008-.02-.1-.036-.24-.036h-.252l-.5.444c-.428.38-1.024.836-1.1.836-.012 0-.02-.596-.02-1.32v-1.32h-.4v2.12zM35.08 14.6c0 .396-.008.72-.016.72s-.112-.044-.228-.096c-.636-.292-1.404-.176-1.856.276-.268.268-.392.56-.412.98-.048.968.432 1.52 1.368 1.588a5.83 5.83 0 0 0 1.34-.112l.204-.044V13.88h-.4v.72zm-.48.876c.112.044.268.124.344.184l.136.104v.916c0 .892-.004.92-.084.964-.104.056-.916.096-1.168.06a1.073 1.073 0 0 1-.74-.544c-.092-.188-.108-.268-.108-.58 0-.32.012-.388.12-.6.128-.248.376-.46.636-.536.224-.064.648-.048.864.032zM3.88 14.232c-.092.012-.128.084-.376.72C2.428 17.716 2.476 17.6 2.42 17.6c-.032 0-.24-.472-.5-1.132-.244-.62-.548-1.376-.668-1.68l-.224-.548H.816c-.12 0-.216.016-.216.036 0 .04.204.548.948 2.364l.552 1.34.604.024.184-.472c.104-.26.44-1.1.752-1.868.308-.768.556-1.4.552-1.408-.024-.024-.212-.04-.312-.024zM7.948 14.488c-.056.14-.408.964-.784 1.832s-.684 1.604-.684 1.628c0 .084.352.068.404-.02.024-.04.148-.324.272-.628l.232-.56h1.828l.192.46c.352.848.32.8.556.8.196 0 .204-.004.18-.096a3.282 3.282 0 0 0-.156-.392c-.076-.16-.42-.964-.772-1.78L8.58 14.24h-.532l-.1.248zm.756 1.028c.184.448.332.824.324.832-.032.032-1.448.02-1.448-.012 0-.02.152-.4.336-.848.236-.564.356-.808.396-.8.032.008.204.368.392.828zM14.44 15.084c-.472.08-.896.396-1.104.82-.104.216-.112.276-.116.676 0 .392.012.464.104.664.288.616.856.884 1.712.82.372-.028.788-.112.852-.176.056-.056-.02-.308-.092-.3-.032 0-.172.036-.308.072-.3.08-.88.092-1.116.024-.412-.116-.7-.44-.756-.856l-.028-.188h1.224c1.384 0 1.268.036 1.268-.372 0-.66-.336-1.064-.98-1.176-.32-.056-.356-.056-.66-.008zm.772.38c.244.084.412.284.468.564.024.116.036.228.02.252s-.396.04-1.044.04c-.856 0-1.024-.008-1.04-.06-.012-.032.024-.156.076-.276.108-.232.336-.432.6-.532.188-.068.704-.064.92.012zM21.7 15.076c-.548.088-.86.384-.86.808 0 .328.216.588.576.696.1.032.348.084.552.12.5.084.612.124.732.264.168.204.116.492-.12.636-.196.12-.672.172-1.068.12a1.964 1.964 0 0 1-.396-.084.345.345 0 0 0-.132-.036c-.068 0-.168.272-.12.32.132.116.988.192 1.4.124.704-.124 1.024-.476.896-1.004-.092-.384-.452-.624-1.068-.72-.636-.1-.852-.224-.852-.5 0-.16.152-.324.356-.38.212-.06.752-.048 1.004.02.3.08.308.08.36-.084.06-.176.044-.192-.276-.252-.336-.06-.76-.084-.984-.048zM25.28 15.08c-.12.02-.324.068-.452.108l-.236.068.028.14c.016.08.036.156.044.172s.12-.012.248-.056c.16-.056.364-.088.696-.1.42-.02.484-.012.64.064.224.108.312.28.312.604v.24h-.408a5.73 5.73 0 0 0-1.268.14c-.28.064-.288.072-.384.26-.192.376-.168.772.068 1.056.18.22.344.28.812.28.48 0 .776-.076 1.036-.276.104-.076.2-.14.22-.14s.048.064.06.14c.044.236.284.352.572.276.18-.048.156-.284-.032-.324-.232-.044-.24-.08-.26-1.072-.012-.772-.028-.932-.088-1.072a.776.776 0 0 0-.504-.452c-.248-.076-.808-.104-1.104-.056zm1.272 1.864.012.36-.18.128c-.244.176-.412.24-.744.288-.34.048-.592 0-.724-.144-.132-.14-.152-.544-.04-.72.068-.112.112-.132.352-.176a7.826 7.826 0 0 1 1.152-.104l.16.004.012.364zM29.82 15.084c-.3.048-.488.14-.7.34l-.192.18-.056-.488-.332.024.004 1.42v1.42h.396l.02-1c.02-.988.02-1 .12-1.132.124-.168.408-.356.616-.412.092-.024.3-.036.468-.028.368.02.504.104.644.384.088.18.092.232.104 1.196L30.924 18h.404l-.016-1.052c-.016-.984-.02-1.06-.108-1.248-.164-.364-.396-.536-.824-.616-.26-.048-.276-.048-.56 0zM38.048 15.1c-.276.076-.408.148-.588.32-.084.076-.156.14-.164.14s-.016-.1-.016-.22v-.22h-.36V18h.4v-1.992l.188-.208c.24-.268.512-.4.82-.4.256 0 .412.048.54.168.064.06.1.068.16.036.24-.128.208-.28-.088-.424-.268-.132-.6-.16-.892-.08zM4.744 17.488a.468.468 0 0 0-.064.236c0 .284.34.42.54.216.124-.12.128-.292.016-.436-.112-.14-.4-.152-.492-.016zM9.56 25.44v5.28l20.74-.02V20.18l-.108-.012-.112-.012V30.48H9.8V20.16h-.24v5.28z"/>
  <path d="M12.932 25.708c-.092.036-.06.2.04.224.048.016 3.196.024 6.992.024 7.388 0 7.128.008 7.012-.184-.044-.068-.336-.072-7.02-.08-3.836-.004-7 .004-7.024.016zM18.656 26.816c-.108.08-.148.212-.068.24.096.04.132.028.132-.036 0-.096.124-.124.184-.044.06.084.036.168-.084.304-.136.152-.3.404-.3.464 0 .044.072.056.3.056.272 0 .3-.008.3-.08 0-.068-.028-.08-.184-.08h-.184l.144-.168a1.06 1.06 0 0 0 .192-.32c.04-.136.036-.168-.036-.264a.288.288 0 0 0-.396-.072zM19.344 26.836c-.24.264-.124.964.156.964.176 0 .26-.172.26-.52 0-.252-.016-.328-.084-.416-.096-.124-.236-.136-.332-.028zm.248.436c.008.272 0 .332-.052.352-.112.044-.156-.052-.152-.34.004-.308.028-.376.124-.356.056.012.072.072.08.344zM20.012 26.82c-.104.072-.144.208-.064.236.096.04.132.028.132-.036 0-.096.124-.124.184-.044.06.084.036.168-.084.304-.136.152-.3.404-.3.464 0 .044.072.056.3.056.272 0 .3-.008.3-.08 0-.068-.028-.08-.184-.08h-.184l.128-.148c.072-.08.156-.208.188-.284.128-.308-.152-.572-.416-.388zM20.692 26.82c-.104.072-.144.208-.064.236.096.04.132.028.132-.036 0-.096.124-.124.184-.044.06.084.036.168-.084.304-.136.152-.3.404-.3.464 0 .044.072.056.3.056.272 0 .3-.008.3-.08 0-.068-.028-.08-.184-.08h-.18l.14-.172c.244-.296.276-.46.124-.608-.108-.112-.244-.128-.368-.04z"/>
</svg>
