<svg aria-hidden="true" style="position: absolute; width: 0; height: 0; overflow: hidden;" version="1.1" xmlns="http://www.w3.org/2000/svg" xmlns:xlink="http://www.w3.org/1999/xlink">
<defs>
<symbol id="icon-logo" viewBox="0 0 40 32">
<path d="M9.588 0.748c-0.016 0.012-0.028 2.388-0.028 5.28v5.252h0.24v-10.32l20.26 0.020 0.012 5.148 0.008 5.152h0.2v-10.56h-10.332c-5.684 0-10.348 0.012-10.36 0.028z"></path>
<path d="M16.64 5.66l-1.14 1.144 1.048 1.028c0.576 0.564 1.096 1.076 1.16 1.14l0.116 0.108 0.288-0.288 0.288-0.292-1.7-1.7 1.72-1.72-0.28-0.28c-0.152-0.152-0.296-0.28-0.32-0.28-0.020 0-0.552 0.512-1.18 1.14z"></path>
<path d="M21.58 4.8l-0.276 0.284 1.716 1.716-1.7 1.7 0.3 0.3 0.3 0.296 1.148-1.148 1.152-1.148-1.14-1.14c-0.628-0.628-1.156-1.14-1.18-1.14-0.020 0-0.164 0.128-0.32 0.28z"></path>
<path d="M11.408 15.628c0.012 1.864 0.012 1.872 0.104 2.060 0.108 0.216 0.332 0.352 0.58 0.352 0.148 0 0.148 0 0.148-0.172 0-0.168-0.004-0.176-0.156-0.22-0.284-0.088-0.284-0.080-0.284-2.104v-1.784h-0.404l0.012 1.868z"></path>
<path d="M17.24 15.88v2.12h0.396l0.024-1.216 0.26-0.148c0.16-0.096 0.272-0.136 0.3-0.116 0.024 0.020 0.296 0.36 0.6 0.756l0.56 0.72 0.232 0.004c0.124 0 0.228-0.016 0.228-0.032 0-0.040-0.128-0.216-0.464-0.636-0.596-0.736-0.848-1.068-0.832-1.1 0.008-0.016 0.284-0.256 0.608-0.532 0.324-0.28 0.596-0.524 0.6-0.544 0.008-0.020-0.1-0.036-0.24-0.036h-0.252l-0.5 0.444c-0.428 0.38-1.024 0.836-1.1 0.836-0.012 0-0.020-0.596-0.020-1.32v-1.32h-0.4v2.12z"></path>
<path d="M35.080 14.6c0 0.396-0.008 0.72-0.016 0.72s-0.112-0.044-0.228-0.096c-0.636-0.292-1.404-0.176-1.856 0.276-0.268 0.268-0.392 0.56-0.412 0.98-0.048 0.968 0.432 1.52 1.368 1.588 0.328 0.024 0.964-0.028 1.34-0.112l0.204-0.044v-4.032h-0.4v0.72zM34.6 15.476c0.112 0.044 0.268 0.124 0.344 0.184l0.136 0.104v0.916c0 0.892-0.004 0.92-0.084 0.964-0.104 0.056-0.916 0.096-1.168 0.060-0.292-0.044-0.608-0.276-0.74-0.544-0.092-0.188-0.108-0.268-0.108-0.58 0-0.32 0.012-0.388 0.12-0.6 0.128-0.248 0.376-0.46 0.636-0.536 0.224-0.064 0.648-0.048 0.864 0.032z"></path>
<path d="M3.88 14.232c-0.092 0.012-0.128 0.084-0.376 0.72-1.076 2.764-1.028 2.648-1.084 2.648-0.032 0-0.24-0.472-0.5-1.132-0.244-0.62-0.548-1.376-0.668-1.68l-0.224-0.548h-0.212c-0.12 0-0.216 0.016-0.216 0.036 0 0.040 0.204 0.548 0.948 2.364l0.552 1.34 0.604 0.024 0.184-0.472c0.104-0.26 0.44-1.1 0.752-1.868 0.308-0.768 0.556-1.4 0.552-1.408-0.024-0.024-0.212-0.040-0.312-0.024z"></path>
<path d="M7.948 14.488c-0.056 0.14-0.408 0.964-0.784 1.832s-0.684 1.604-0.684 1.628c0 0.084 0.352 0.068 0.404-0.020 0.024-0.040 0.148-0.324 0.272-0.628l0.232-0.56h1.828l0.192 0.46c0.352 0.848 0.32 0.8 0.556 0.8 0.196 0 0.204-0.004 0.18-0.096-0.012-0.056-0.084-0.232-0.156-0.392-0.076-0.16-0.42-0.964-0.772-1.78l-0.636-1.492h-0.532l-0.1 0.248zM8.704 15.516c0.184 0.448 0.332 0.824 0.324 0.832-0.032 0.032-1.448 0.020-1.448-0.012 0-0.020 0.152-0.4 0.336-0.848 0.236-0.564 0.356-0.808 0.396-0.8 0.032 0.008 0.204 0.368 0.392 0.828z"></path>
<path d="M14.44 15.084c-0.472 0.080-0.896 0.396-1.104 0.82-0.104 0.216-0.112 0.276-0.116 0.676 0 0.392 0.012 0.464 0.104 0.664 0.288 0.616 0.856 0.884 1.712 0.82 0.372-0.028 0.788-0.112 0.852-0.176 0.056-0.056-0.020-0.308-0.092-0.3-0.032 0-0.172 0.036-0.308 0.072-0.3 0.080-0.88 0.092-1.116 0.024-0.412-0.116-0.7-0.44-0.756-0.856l-0.028-0.188h1.224c1.384 0 1.268 0.036 1.268-0.372 0-0.66-0.336-1.064-0.98-1.176-0.32-0.056-0.356-0.056-0.66-0.008zM15.212 15.464c0.244 0.084 0.412 0.284 0.468 0.564 0.024 0.116 0.036 0.228 0.020 0.252s-0.396 0.040-1.044 0.040c-0.856 0-1.024-0.008-1.040-0.060-0.012-0.032 0.024-0.156 0.076-0.276 0.108-0.232 0.336-0.432 0.6-0.532 0.188-0.068 0.704-0.064 0.92 0.012z"></path>
<path d="M21.7 15.076c-0.548 0.088-0.86 0.384-0.86 0.808 0 0.328 0.216 0.588 0.576 0.696 0.1 0.032 0.348 0.084 0.552 0.12 0.5 0.084 0.612 0.124 0.732 0.264 0.168 0.204 0.116 0.492-0.12 0.636-0.196 0.12-0.672 0.172-1.068 0.12-0.18-0.024-0.36-0.064-0.396-0.084-0.040-0.020-0.096-0.036-0.132-0.036-0.068 0-0.168 0.272-0.12 0.32 0.132 0.116 0.988 0.192 1.4 0.124 0.704-0.124 1.024-0.476 0.896-1.004-0.092-0.384-0.452-0.624-1.068-0.72-0.636-0.1-0.852-0.224-0.852-0.5 0-0.16 0.152-0.324 0.356-0.38 0.212-0.060 0.752-0.048 1.004 0.020 0.3 0.080 0.308 0.080 0.36-0.084 0.060-0.176 0.044-0.192-0.276-0.252-0.336-0.060-0.76-0.084-0.984-0.048z"></path>
<path d="M25.28 15.080c-0.12 0.020-0.324 0.068-0.452 0.108l-0.236 0.068 0.028 0.14c0.016 0.080 0.036 0.156 0.044 0.172s0.12-0.012 0.248-0.056c0.16-0.056 0.364-0.088 0.696-0.1 0.42-0.020 0.484-0.012 0.64 0.064 0.224 0.108 0.312 0.28 0.312 0.604v0.24h-0.408c-0.46 0.004-0.84 0.044-1.268 0.14-0.28 0.064-0.288 0.072-0.384 0.26-0.192 0.376-0.168 0.772 0.068 1.056 0.18 0.22 0.344 0.28 0.812 0.28 0.48 0 0.776-0.076 1.036-0.276 0.104-0.076 0.2-0.14 0.22-0.14s0.048 0.064 0.060 0.14c0.044 0.236 0.284 0.352 0.572 0.276 0.18-0.048 0.156-0.284-0.032-0.324-0.232-0.044-0.24-0.080-0.26-1.072-0.012-0.772-0.028-0.932-0.088-1.072-0.108-0.236-0.264-0.376-0.504-0.452-0.248-0.076-0.808-0.104-1.104-0.056zM26.552 16.944l0.012 0.36-0.18 0.128c-0.244 0.176-0.412 0.24-0.744 0.288-0.34 0.048-0.592 0-0.724-0.144-0.132-0.14-0.152-0.544-0.040-0.72 0.068-0.112 0.112-0.132 0.352-0.176 0.312-0.056 0.916-0.112 1.152-0.104l0.16 0.004 0.012 0.364z"></path>
<path d="M29.82 15.084c-0.3 0.048-0.488 0.14-0.7 0.34l-0.192 0.18-0.056-0.488-0.332 0.024 0.004 1.42v1.42h0.396l0.020-1c0.020-0.988 0.020-1 0.12-1.132 0.124-0.168 0.408-0.356 0.616-0.412 0.092-0.024 0.3-0.036 0.468-0.028 0.368 0.020 0.504 0.104 0.644 0.384 0.088 0.18 0.092 0.232 0.104 1.196l0.012 1.012h0.404l-0.016-1.052c-0.016-0.984-0.020-1.060-0.108-1.248-0.164-0.364-0.396-0.536-0.824-0.616-0.26-0.048-0.276-0.048-0.56 0z"></path>
<path d="M38.048 15.1c-0.276 0.076-0.408 0.148-0.588 0.32-0.084 0.076-0.156 0.14-0.164 0.14s-0.016-0.1-0.016-0.22v-0.22h-0.36v2.88h0.4v-1.992l0.188-0.208c0.24-0.268 0.512-0.4 0.82-0.4 0.256 0 0.412 0.048 0.54 0.168 0.064 0.060 0.1 0.068 0.16 0.036 0.24-0.128 0.208-0.28-0.088-0.424-0.268-0.132-0.6-0.16-0.892-0.080z"></path>
<path d="M4.744 17.488c-0.036 0.048-0.064 0.156-0.064 0.236 0 0.284 0.34 0.42 0.54 0.216 0.124-0.12 0.128-0.292 0.016-0.436-0.112-0.14-0.4-0.152-0.492-0.016z"></path>
<path d="M9.56 25.44v5.28l20.74-0.020v-10.52l-0.108-0.012-0.112-0.012v10.324h-20.28v-10.32h-0.24v5.28z"></path>
<path d="M12.932 25.708c-0.092 0.036-0.060 0.2 0.040 0.224 0.048 0.016 3.196 0.024 6.992 0.024 7.388 0 7.128 0.008 7.012-0.184-0.044-0.068-0.336-0.072-7.020-0.080-3.836-0.004-7 0.004-7.024 0.016z"></path>
<path d="M18.656 26.816c-0.108 0.080-0.148 0.212-0.068 0.24 0.096 0.040 0.132 0.028 0.132-0.036 0-0.096 0.124-0.124 0.184-0.044 0.060 0.084 0.036 0.168-0.084 0.304-0.136 0.152-0.3 0.404-0.3 0.464 0 0.044 0.072 0.056 0.3 0.056 0.272 0 0.3-0.008 0.3-0.080 0-0.068-0.028-0.080-0.184-0.080h-0.184l0.144-0.168c0.080-0.092 0.168-0.236 0.192-0.32 0.040-0.136 0.036-0.168-0.036-0.264-0.092-0.128-0.272-0.16-0.396-0.072z"></path>
<path d="M19.344 26.836c-0.24 0.264-0.124 0.964 0.156 0.964 0.176 0 0.26-0.172 0.26-0.52 0-0.252-0.016-0.328-0.084-0.416-0.096-0.124-0.236-0.136-0.332-0.028zM19.592 27.272c0.008 0.272 0 0.332-0.052 0.352-0.112 0.044-0.156-0.052-0.152-0.34 0.004-0.308 0.028-0.376 0.124-0.356 0.056 0.012 0.072 0.072 0.080 0.344z"></path>
<path d="M20.012 26.82c-0.104 0.072-0.144 0.208-0.064 0.236 0.096 0.040 0.132 0.028 0.132-0.036 0-0.096 0.124-0.124 0.184-0.044 0.060 0.084 0.036 0.168-0.084 0.304-0.136 0.152-0.3 0.404-0.3 0.464 0 0.044 0.072 0.056 0.3 0.056 0.272 0 0.3-0.008 0.3-0.080 0-0.068-0.028-0.080-0.184-0.080h-0.184l0.128-0.148c0.072-0.080 0.156-0.208 0.188-0.284 0.128-0.308-0.152-0.572-0.416-0.388z"></path>
<path d="M20.692 26.82c-0.104 0.072-0.144 0.208-0.064 0.236 0.096 0.040 0.132 0.028 0.132-0.036 0-0.096 0.124-0.124 0.184-0.044 0.060 0.084 0.036 0.168-0.084 0.304-0.136 0.152-0.3 0.404-0.3 0.464 0 0.044 0.072 0.056 0.3 0.056 0.272 0 0.3-0.008 0.3-0.080 0-0.068-0.028-0.080-0.184-0.080h-0.18l0.14-0.172c0.244-0.296 0.276-0.46 0.124-0.608-0.108-0.112-0.244-0.128-0.368-0.040z"></path>
</symbol>
</defs>
</svg>
