<svg width="50" height="50" xmlns="http://www.w3.org/2000/svg" fill="#ffffff" version="1.1">
 <title>logo</title>

 <g>
  <title>Layer 1</title>
  <ellipse stroke="null" fill="#3d3d3d" stroke-width="0" ry="15.57377" rx="16.83061" id="svg_32" cy="25.05465" cx="23.63388"/>
  <g id="svg_31">
   <path fill="#ffffff" id="svg_33" d="m22.98917,10.94994c-0.411,0.657 -0.891,1.419 -1.064,1.694c-0.174,0.272 -0.313,0.513 -0.313,0.532c0,0.038 0.623,-0.049 1.377,-0.196c0.272,-0.053 0.736,-0.14 1.034,-0.192s0.574,-0.113 0.611,-0.136c0.075,-0.038 0.275,-0.332 0.411,-0.6l0.079,-0.159l-0.479,-0.777c-0.664,-1.083 -0.849,-1.366 -0.875,-1.366c-0.015,0 -0.366,0.54 -0.781,1.2z"/>
   <path fill="#ffffff" id="svg_34" d="m25.46817,13.31594c-0.238,0.057 -0.358,0.159 -0.487,0.415c-0.053,0.102 -0.241,0.442 -0.419,0.755c-0.725,1.268 -2.019,4.094 -1.879,4.094c0.083,0 1.562,-0.792 2.381,-1.275c0.928,-0.547 2.17,-1.336 2.43,-1.54c0.015,-0.011 -0.102,-0.208 -0.762,-1.279c-0.615,-0.996 -0.717,-1.132 -0.864,-1.185c-0.14,-0.049 -0.143,-0.049 -0.4,0.015z"/>
   <path fill="#ffffff" id="svg_35" d="m23.70617,13.65494c-0.143,0.03 -0.774,0.136 -1.396,0.242s-1.185,0.215 -1.249,0.245c-0.083,0.038 -0.185,0.159 -0.34,0.408c-0.121,0.192 -0.475,0.758 -0.789,1.257s-0.589,0.951 -0.611,1.008c-0.041,0.094 -0.034,0.121 0.094,0.287c0.075,0.102 0.532,0.608 1.008,1.121c0.479,0.513 0.879,0.951 0.894,0.974c0.041,0.068 0.2,-0.041 0.287,-0.196c0.041,-0.075 0.177,-0.4 0.302,-0.721c0.494,-1.283 1.264,-2.925 1.989,-4.245c0.113,-0.208 0.208,-0.389 0.208,-0.408c0,-0.034 -0.075,-0.03 -0.396,0.03l-0.001,-0.002z"/>
   <path fill="#ffffff" id="svg_36" d="m27.32917,16.84794c-1.543,0.989 -2.849,1.743 -4.177,2.411c-0.887,0.449 -1.075,0.585 -1.041,0.732c0.008,0.026 0.355,0.4 0.77,0.83c0.506,0.517 0.785,0.777 0.838,0.777c0.094,0 4.019,-1.23 4.166,-1.306c0.113,-0.06 0.113,-0.057 0.687,-1.121c0.223,-0.411 0.415,-0.804 0.423,-0.868c0.019,-0.128 0.008,-0.155 -0.566,-1.083c-0.347,-0.559 -0.464,-0.717 -0.525,-0.713c-0.026,0 -0.283,0.155 -0.574,0.34l-0.001,0.001z"/>
   <path fill="#ffffff" id="svg_37" d="m18.63817,17.86994c-0.083,0.132 -0.358,0.57 -0.611,0.974c-0.257,0.404 -0.596,0.94 -0.755,1.189c-0.317,0.491 -0.472,0.774 -0.426,0.774c0.06,0 0.762,-0.196 1.238,-0.347c0.687,-0.215 1.589,-0.536 2.068,-0.736l0.404,-0.17l-0.117,-0.14c-0.068,-0.075 -0.336,-0.366 -0.6,-0.645s-0.6,-0.649 -0.751,-0.823c-0.151,-0.17 -0.279,-0.309 -0.283,-0.309c-0.008,0 -0.083,0.106 -0.166,0.234l-0.001,-0.001z"/>
   <path fill="#ffffff" id="svg_38" d="m29.41217,19.26694c-0.136,0.238 -0.291,0.551 -0.291,0.592c0,0.019 0.109,0.004 0.241,-0.034c0.404,-0.113 0.513,-0.162 0.513,-0.226c-0.004,-0.068 -0.268,-0.46 -0.325,-0.479c-0.026,-0.008 -0.087,0.057 -0.14,0.147l0.002,0z"/>
   <path fill="#ffffff" id="svg_39" d="m20.75917,20.34994c-0.208,0.079 -0.411,0.162 -0.453,0.185c-0.294,0.159 -2.611,0.898 -3.555,1.14c-0.174,0.041 -0.381,0.106 -0.464,0.14c-0.132,0.053 -0.147,0.072 -0.147,0.196c0,0.136 0.253,1.664 0.279,1.691c0.019,0.023 1.155,-0.283 2.74,-0.736l1.302,-0.37l0.087,-0.317c0.049,-0.177 0.208,-0.698 0.355,-1.159c0.143,-0.46 0.257,-0.857 0.249,-0.875c-0.004,-0.019 -0.181,0.026 -0.392,0.106l-0.001,-0.001z"/>
   <path fill="#ffffff" id="svg_40" d="m30.10217,20.43594c-0.608,0.17 -1.468,0.468 -1.543,0.536c-0.094,0.083 -0.834,1.543 -1.381,2.721c-0.226,0.483 -0.34,0.774 -0.351,0.894c-0.011,0.102 0,0.181 0.019,0.181s0.272,-0.215 0.558,-0.483c1.196,-1.102 2.491,-2.226 3.291,-2.853l0.234,-0.181l-0.136,-0.215c-0.075,-0.117 -0.196,-0.309 -0.272,-0.43c-0.143,-0.23 -0.174,-0.242 -0.419,-0.17z"/>
   <path fill="#ffffff" id="svg_41" d="m21.73217,21.13494c-0.121,0.332 -0.309,0.992 -0.309,1.075c0,0.068 0.015,0.072 0.14,0.049c0.147,-0.026 0.894,-0.245 1.079,-0.317c0.057,-0.023 0.102,-0.057 0.102,-0.075c0,-0.045 -0.864,-0.947 -0.906,-0.947c-0.015,0 -0.064,0.098 -0.106,0.215z"/>
   <path fill="#ffffff" id="svg_42" d="m27.25317,21.35294c-0.019,0.008 -0.317,0.102 -0.66,0.208c-1.045,0.325 -2.264,0.717 -2.264,0.732c0,0.004 0.4,0.396 0.894,0.872l0.891,0.86l0.094,-0.185c0.053,-0.102 0.219,-0.449 0.366,-0.77c0.151,-0.321 0.4,-0.845 0.558,-1.162c0.287,-0.57 0.298,-0.615 0.121,-0.555z"/>
   <path fill="#ffffff" id="svg_43" d="m31.04617,22.16894c-0.638,0.494 -2.245,1.906 -3.189,2.808l-0.377,0.358l0.264,0.245c0.792,0.743 2.683,2.358 2.755,2.358c0.068,0 0.683,-0.747 1.879,-2.275l0.706,-0.898l-0.113,-0.196c-0.419,-0.736 -1.581,-2.562 -1.642,-2.577c-0.019,-0.008 -0.147,0.075 -0.283,0.177z"/>
   <path fill="#ffffff" id="svg_44" d="m22.98917,22.66994c-0.226,0.068 -0.74,0.223 -1.14,0.347l-0.725,0.223l-0.226,0.925c-0.415,1.694 -0.77,3.445 -1.083,5.321c-0.113,0.687 -0.113,0.743 -0.004,0.777c0.045,0.011 0.385,0.14 0.751,0.283s0.706,0.26 0.755,0.26c0.106,0 0.238,-0.132 0.675,-0.679c0.645,-0.811 1.54,-1.849 2.513,-2.913c0.313,-0.347 0.608,-0.694 0.645,-0.774c0.094,-0.185 0.611,-1.517 0.611,-1.574c0,-0.038 -2.313,-2.328 -2.347,-2.325c-0.008,0.004 -0.196,0.06 -0.426,0.128l0.001,0.001z"/>
   <path fill="#ffffff" id="svg_45" d="m15.34017,23.11594c-0.072,0.098 -0.34,0.521 -0.54,0.857c-0.026,0.045 0.004,0.049 0.181,0.03c0.336,-0.041 0.589,-0.109 0.611,-0.17s-0.091,-0.766 -0.132,-0.811c-0.015,-0.015 -0.068,0.026 -0.121,0.094l0.001,0z"/>
   <path fill="#ffffff" id="svg_46" d="m20.04617,23.54994c-0.041,0.011 -0.449,0.125 -0.906,0.257s-1.128,0.317 -1.491,0.415c-0.362,0.094 -0.751,0.2 -0.864,0.23l-0.204,0.057l0.026,0.291c0.015,0.159 0.087,0.604 0.159,0.989c0.2,1.049 0.343,1.872 0.449,2.566c0.053,0.343 0.117,0.74 0.143,0.883l0.049,0.257l0.751,0.234c0.732,0.23 0.755,0.234 0.781,0.159c0.015,-0.045 0.075,-0.411 0.14,-0.815c0.06,-0.404 0.226,-1.313 0.362,-2.019c0.226,-1.162 0.355,-1.762 0.638,-2.981c0.053,-0.23 0.098,-0.445 0.098,-0.483c0,-0.068 -0.004,-0.068 -0.132,-0.038l0.001,-0.002z"/>
   <path fill="#ffffff" id="svg_47" d="m15.61217,24.71994c-0.053,0.008 -0.37,0.057 -0.706,0.109c-0.34,0.049 -0.638,0.102 -0.664,0.113c-0.03,0.011 -0.087,0.068 -0.132,0.125c-0.079,0.109 -0.826,1.283 -0.921,1.445c-0.038,0.064 -0.049,0.328 -0.049,1.038l0,0.951l0.321,0.041c0.43,0.06 0.951,0.177 2.106,0.472c0.528,0.136 0.974,0.238 0.981,0.226c0.023,-0.023 -0.019,-0.294 -0.389,-2.351c-0.362,-2.049 -0.392,-2.2 -0.426,-2.192c-0.015,0.004 -0.068,0.015 -0.121,0.023z"/>
   <path fill="#ffffff" id="svg_48" d="m33.36617,25.70394c-0.083,0.098 -0.411,0.509 -0.725,0.913s-0.789,0.996 -1.053,1.317l-0.483,0.581l0.151,0.117c0.294,0.234 0.838,0.728 1.358,1.241l0.536,0.521l0.615,-0.672c0.34,-0.37 0.8,-0.864 1.026,-1.102c0.223,-0.238 0.404,-0.445 0.404,-0.46c0,-0.026 -1.449,-2.374 -1.57,-2.54c-0.041,-0.053 -0.079,-0.098 -0.091,-0.098s-0.087,0.079 -0.17,0.181l0.002,0.001z"/>
   <path fill="#ffffff" id="svg_49" d="m26.39317,26.40194c-0.442,0.434 -0.517,0.528 -0.604,0.743c-0.113,0.275 -0.54,1.675 -0.683,2.249c-0.272,1.083 -0.566,2.649 -0.543,2.913c0.011,0.136 0.026,0.147 0.404,0.374c0.215,0.132 0.453,0.253 0.528,0.275c0.075,0.019 0.317,0.038 0.543,0.038l0.404,0l0.592,-0.747c0.517,-0.649 1.317,-1.634 2.57,-3.162c0.189,-0.234 0.347,-0.442 0.347,-0.464c0,-0.053 -0.253,-0.283 -1.057,-0.955c-0.385,-0.325 -0.989,-0.853 -1.347,-1.177l-0.645,-0.589l-0.509,0.502z"/>
   <path fill="#ffffff" id="svg_50" d="m23.92917,29.07394c-1.004,1.17 -1.751,2.079 -1.751,2.132c0.004,0.019 0.125,0.091 0.275,0.162s0.502,0.234 0.781,0.366c0.502,0.238 0.509,0.241 0.536,0.159c0.015,-0.049 0.106,-0.502 0.2,-1.011s0.257,-1.253 0.362,-1.657c0.102,-0.404 0.181,-0.747 0.174,-0.77s-0.268,0.257 -0.577,0.619z"/>
   <path fill="#ffffff" id="svg_51" d="m35.26817,29.28594c-0.792,0.815 -1.581,1.694 -1.581,1.77c0,0.091 1.34,1.728 1.502,1.834c0.094,0.06 0.23,0.068 1.566,0.068c0.804,0 1.46,-0.008 1.46,-0.019c0,-0.019 -2.313,-3.687 -2.449,-3.875c-0.053,-0.079 -0.106,-0.143 -0.117,-0.143s-0.181,0.166 -0.381,0.366l0,-0.001z"/>
   <path fill="#ffffff" id="svg_52" d="m30.20417,29.60594c-0.683,0.826 -2.355,2.883 -2.517,3.098c-0.087,0.121 -0.155,0.226 -0.143,0.234c0.038,0.041 3.275,0.023 3.351,-0.019c0.102,-0.053 1.66,-1.838 1.66,-1.898c0,-0.151 -1.792,-1.838 -1.955,-1.838c-0.023,0 -0.2,0.192 -0.396,0.423z"/>
   <path fill="#ffffff" id="svg_53" d="m11.58117,29.36894c-0.151,0.019 -0.211,0.045 -0.26,0.117c-0.087,0.121 -1.517,2.396 -1.891,3.008c-0.159,0.257 -0.275,0.472 -0.268,0.479c0.03,0.03 2.392,0.072 2.532,0.045l0.132,-0.023l0.026,-0.464c0.034,-0.577 0.072,-0.928 0.208,-1.97c0.06,-0.457 0.121,-0.921 0.136,-1.03l0.023,-0.196l-0.219,0.004c-0.121,0.004 -0.309,0.019 -0.419,0.03z"/>
   <path fill="#ffffff" id="svg_54" d="m13.01217,29.56894c-0.17,1.004 -0.336,2.43 -0.351,3.03l-0.011,0.415l2.019,0.011c1.109,0.004 2.075,0 2.147,-0.011l0.128,-0.023l-0.026,-0.291c-0.015,-0.159 -0.057,-0.615 -0.098,-1.008c-0.038,-0.396 -0.087,-0.902 -0.109,-1.128c-0.019,-0.226 -0.049,-0.423 -0.068,-0.438c-0.038,-0.034 -2.102,-0.558 -2.736,-0.698c-0.245,-0.053 -0.536,-0.094 -0.649,-0.094l-0.204,0l-0.042,0.234l0,0.001z"/>
   <path fill="#ffffff" id="svg_55" d="m17.53617,30.60994c0,0.294 0.147,1.883 0.211,2.26l0.019,0.125l0.819,0l0.023,-0.37c0.023,-0.317 0.087,-0.992 0.162,-1.653l0.019,-0.192l-0.389,-0.136c-0.215,-0.079 -0.498,-0.162 -0.626,-0.192l-0.238,-0.053l0,0.211z"/>
   <path fill="#ffffff" id="svg_56" d="m19.55917,31.13494c-0.026,0.091 -0.125,1.075 -0.155,1.532l-0.019,0.37l0.14,-0.023c0.079,-0.015 0.17,-0.034 0.208,-0.041c0.072,-0.019 1.057,-1.321 1.064,-1.404c0.004,-0.06 -0.374,-0.238 -0.86,-0.4c-0.351,-0.117 -0.351,-0.117 -0.377,-0.034l-0.001,0z"/>
   <path fill="#ffffff" id="svg_57" d="m32.81517,31.99094c-0.306,0.328 -0.789,0.906 -0.789,0.943c0,0.011 0.468,0.023 1.038,0.023s1.038,-0.015 1.038,-0.03c0,-0.034 -0.921,-1.196 -0.97,-1.226c-0.015,-0.008 -0.159,0.121 -0.317,0.291l0,-0.001z"/>
   <path fill="#ffffff" id="svg_58" d="m21.48317,32.05194c-0.075,0.087 -0.268,0.328 -0.426,0.54l-0.287,0.385l1.426,0.011c0.785,0.004 1.438,-0.004 1.449,-0.015s-0.038,-0.075 -0.117,-0.14c-0.196,-0.174 -1.728,-0.932 -1.875,-0.932c-0.019,0 -0.094,0.068 -0.17,0.151z"/>
  </g>
 </g>
</svg>