<svg width="192" height="192" xmlns="http://www.w3.org/2000/svg" fill="#ffffff" version="1.1">
 <title>logo</title>

 <g>
  <title>Layer 1</title>
  <g stroke="null" id="svg_60">
   <ellipse stroke="null" fill="#3d3d3d" stroke-width="0" ry="90.67752" rx="95.81588" id="svg_32" cy="96" cx="96"/>
   <g stroke="null" id="svg_31">
    <path stroke="null" fill="#ffffff" id="svg_33" d="m92.32972,13.87607c-2.3398,3.82535 -5.07242,8.26206 -6.0573,9.86323c-0.99057,1.58371 -1.78189,2.98692 -1.78189,3.09754c0,0.22125 3.54671,-0.2853 7.8392,-1.1412c1.54848,-0.30859 4.19001,-0.81514 5.88652,-1.11791s3.26776,-0.65794 3.4784,-0.79185c0.42697,-0.22125 1.56556,-1.93305 2.3398,-3.49347l0.44974,-0.92577l-2.72693,-4.52404c-3.78012,-6.30571 -4.83332,-7.95347 -4.98134,-7.95347c-0.08539,0 -2.08362,3.14412 -4.4462,6.98694z"/>
    <path stroke="null" fill="#ffffff" id="svg_34" d="m106.44255,27.65198c-1.35492,0.33188 -2.03808,0.92577 -2.77247,2.41632c-0.30173,0.59389 -1.372,2.57352 -2.38535,4.39595c-4.12739,7.38287 -11.49408,23.83711 -10.69706,23.83711c0.47252,0 8.8924,-4.61138 13.55493,-7.42362c5.28306,-3.18488 12.35371,-7.77879 13.83388,-8.96657c0.08539,-0.06405 -0.58068,-1.21107 -4.33803,-7.44691c-3.50117,-5.79916 -4.08185,-6.59101 -4.91871,-6.8996c-0.79701,-0.2853 -0.81409,-0.2853 -2.27718,0.08734z"/>
    <path stroke="null" fill="#ffffff" id="svg_35" d="m96.41156,29.62579c-0.81409,0.17467 -4.40635,0.79185 -7.94737,1.40903s-6.74615,1.25183 -7.1105,1.4265c-0.47252,0.22125 -1.0532,0.92577 -1.9356,2.37556c-0.68885,1.11791 -2.70415,4.41342 -4.49174,7.31882s-3.35315,5.53715 -3.4784,5.86903c-0.23341,0.54731 -0.19356,0.70452 0.53514,1.67104c0.42697,0.59389 3.02865,3.54005 5.7385,6.52697c2.72693,2.98692 5.00411,5.53715 5.0895,5.67107c0.23341,0.39593 1.13859,-0.23872 1.63388,-1.1412c0.23341,-0.43668 1.00765,-2.32898 1.71927,-4.19799c2.81232,-7.4702 7.1959,-17.03067 11.32329,-24.7163c0.6433,-1.21107 1.18413,-2.26493 1.18413,-2.37556c0,-0.19796 -0.42697,-0.17467 -2.25441,0.17467l-0.00569,-0.01164z"/>
    <path stroke="null" fill="#ffffff" id="svg_36" d="m117.03714,48.21688c-8.78423,5.7584 -16.21923,10.14853 -23.77947,14.03793c-5.04965,2.61428 -6.11993,3.40613 -5.92637,4.26203c0.04554,0.15138 2.021,2.32898 4.38358,4.83263c2.88064,3.01021 4.46897,4.52404 4.7707,4.52404c0.53514,0 22.87999,-7.16161 23.71685,-7.60412c0.6433,-0.34935 0.6433,-0.33188 3.91106,-6.52697c1.26953,-2.39303 2.36258,-4.68125 2.40812,-5.05389c0.10817,-0.74527 0.04554,-0.90248 -3.22221,-6.30571c-1.97546,-3.25475 -2.64153,-4.1747 -2.9888,-4.15141c-0.14802,0 -1.61111,0.90248 -3.26776,1.97963l-0.00569,0.00582z"/>
    <path stroke="null" fill="#ffffff" id="svg_37" d="m67.55967,54.16742c-0.47252,0.76856 -2.03808,3.3188 -3.4784,5.67107c-1.46309,2.35227 -3.393,5.4731 -4.29818,6.92289c-1.80467,2.85882 -2.68707,4.50658 -2.4252,4.50658c0.34158,0 4.33803,-1.1412 7.04788,-2.02039c3.91106,-1.25183 9.04611,-3.12083 11.77303,-4.28532l2.29995,-0.98982l-0.66608,-0.81514c-0.38712,-0.43668 -1.91283,-2.13102 -3.41577,-3.75548s-3.41577,-3.77877 -4.27541,-4.79188c-0.85964,-0.98982 -1.58833,-1.79914 -1.61111,-1.79914c-0.04554,0 -0.47252,0.61718 -0.94503,1.36245l-0.00569,-0.00582z"/>
    <path stroke="null" fill="#ffffff" id="svg_38" d="m128.89556,62.30139c-0.77424,1.38574 -1.65665,3.20817 -1.65665,3.44689c0,0.11063 0.62053,0.02329 1.372,-0.19796c2.29995,-0.65794 2.92049,-0.94324 2.92049,-1.31587c-0.02277,-0.39593 -1.52571,-2.67833 -1.85021,-2.78895c-0.14802,-0.04658 -0.49529,0.33188 -0.79701,0.8559l0.01139,0z"/>
    <path stroke="null" fill="#ffffff" id="svg_39" d="m79.63443,68.6071c-1.18413,0.45997 -2.3398,0.94324 -2.57891,1.07715c-1.67373,0.92577 -14.86431,5.22856 -20.23845,6.63759c-0.99057,0.23872 -2.16902,0.61718 -2.64153,0.81514c-0.75147,0.30859 -0.83686,0.41922 -0.83686,1.1412c0,0.79185 1.44032,9.68856 1.58833,9.84576c0.10817,0.13392 6.57536,-1.64775 15.5987,-4.28532l7.41223,-2.15431l0.49529,-1.84572c0.27895,-1.03057 1.18413,-4.06407 2.021,-6.74822c0.81409,-2.67833 1.46309,-4.98984 1.41755,-5.09464c-0.02277,-0.11063 -1.03042,0.15138 -2.23164,0.61718l-0.00569,-0.00582z"/>
    <path stroke="null" fill="#ffffff" id="svg_40" d="m132.8237,69.10783c-3.46132,0.98982 -8.35726,2.72491 -8.78423,3.12083c-0.53514,0.48326 -4.74792,8.98404 -7.86197,15.84289c-1.28661,2.81224 -1.9356,4.50658 -1.99823,5.20527c-0.06262,0.59389 0,1.05386 0.10817,1.05386s1.54848,-1.25183 3.17667,-2.81224c6.80877,-6.41634 14.18115,-12.96077 18.73551,-16.61145l1.33215,-1.05386l-0.77424,-1.25183c-0.42697,-0.68123 -1.11582,-1.79914 -1.54848,-2.50365c-0.81409,-1.33916 -0.99057,-1.40903 -2.38535,-0.98982z"/>
    <path stroke="null" fill="#ffffff" id="svg_41" d="m85.17367,73.17772c-0.68885,1.93305 -1.75912,5.77587 -1.75912,6.25913c0,0.39593 0.08539,0.41922 0.79701,0.2853c0.83686,-0.15138 5.0895,-1.4265 6.1427,-1.84572c0.3245,-0.13392 0.58068,-0.33188 0.58068,-0.43668c0,-0.26201 -4.91871,-5.51386 -5.15782,-5.51386c-0.08539,0 -0.36435,0.5706 -0.60345,1.25183z"/>
    <path stroke="null" fill="#ffffff" id="svg_42" d="m116.60448,74.44702c-0.10817,0.04658 -1.80467,0.59389 -3.75735,1.21107c-5.94914,1.8923 -12.88885,4.1747 -12.88885,4.26203c0,0.02329 2.27718,2.30569 5.0895,5.07718l5.07242,5.00731l0.53514,-1.07715c0.30173,-0.59389 1.24676,-2.61428 2.08362,-4.48329c0.85964,-1.86901 2.27718,-4.91997 3.17667,-6.76569c1.63388,-3.3188 1.6965,-3.58081 0.68885,-3.23146z"/>
    <path stroke="null" fill="#ffffff" id="svg_43" d="m138.19785,79.19814c-3.63211,2.87629 -12.78068,11.09759 -18.15483,16.34944l-2.14624,2.08444l1.50294,1.4265c4.50882,4.32608 15.2742,13.72934 15.68409,13.72934c0.38712,0 3.88829,-4.34937 10.69706,-13.24607l4.01923,-5.22856l-0.6433,-1.1412c-2.38535,-4.28532 -9.00056,-14.91712 -9.34783,-15.00445c-0.10817,-0.04658 -0.83686,0.43668 -1.61111,1.03057z"/>
    <path stroke="null" fill="#ffffff" id="svg_44" d="m92.32972,82.11519c-1.28661,0.39593 -4.21279,1.29841 -6.48997,2.02039l-4.12739,1.29841l-1.28661,5.38577c-2.36258,9.86323 -4.38358,20.05834 -6.16547,30.98126c-0.6433,4.00002 -0.6433,4.32608 -0.02277,4.52404c0.25618,0.06405 2.19179,0.81514 4.27541,1.64775s4.01923,1.51384 4.29818,1.51384c0.60345,0 1.35492,-0.76856 3.84274,-3.95344c3.67196,-4.72201 8.76715,-10.76571 14.3064,-16.9608c1.78189,-2.02039 3.46132,-4.04078 3.67196,-4.50658c0.53514,-1.07715 3.4784,-8.83266 3.4784,-9.16454c0,-0.22125 -13.1678,-13.55466 -13.36137,-13.5372c-0.04554,0.02329 -1.11582,0.34935 -2.4252,0.74527l0.00569,0.00582z"/>
    <path stroke="null" fill="#ffffff" id="svg_45" d="m48.7843,84.712c-0.40989,0.5706 -1.9356,3.0335 -3.0742,4.98984c-0.14802,0.26201 0.02277,0.2853 1.03042,0.17467c1.91283,-0.23872 3.35315,-0.63465 3.4784,-0.98982s-0.51806,-4.46 -0.75147,-4.72201c-0.08539,-0.08734 -0.38712,0.15138 -0.68885,0.54731l0.00569,0z"/>
    <path stroke="null" fill="#ffffff" id="svg_46" d="m75.57535,87.23894c-0.23341,0.06405 -2.55614,0.72781 -5.15782,1.49637s-6.42165,1.84572 -8.4882,2.41632c-2.06085,0.54731 -4.27541,1.16449 -4.91871,1.33916l-1.16136,0.33188l0.14802,1.69433c0.08539,0.92577 0.49529,3.51676 0.90518,5.7584c1.13859,6.10775 1.95268,10.89963 2.55614,14.94041c0.30173,1.9971 0.66608,4.30861 0.81409,5.14122l0.27895,1.49637l4.27541,1.36245c4.16724,1.33916 4.29818,1.36245 4.4462,0.92577c0.08539,-0.26201 0.42697,-2.39303 0.79701,-4.7453c0.34158,-2.35227 1.28661,-7.64488 2.06085,-11.75553c1.28661,-6.76569 2.021,-10.25916 3.63211,-17.35672c0.30173,-1.33916 0.55791,-2.59099 0.55791,-2.81224c0,-0.39593 -0.02277,-0.39593 -0.75147,-0.22125l0.00569,-0.01164z"/>
    <path stroke="null" fill="#ffffff" id="svg_47" d="m50.33279,94.05121c-0.30173,0.04658 -2.10639,0.33188 -4.01923,0.63465c-1.9356,0.2853 -3.63211,0.59389 -3.78012,0.65794c-0.17079,0.06405 -0.49529,0.39593 -0.75147,0.72781c-0.44974,0.63465 -4.70238,7.4702 -5.24321,8.41344c-0.21633,0.37264 -0.27895,1.90976 -0.27895,6.0437l0,5.53715l1.82744,0.23872c2.44797,0.34935 5.414,1.03057 11.98936,2.7482c3.00588,0.79185 5.54494,1.38574 5.58479,1.31587c0.13094,-0.13392 -0.10817,-1.7118 -2.21456,-13.68858c-2.06085,-11.9302 -2.23164,-12.80939 -2.4252,-12.76281c-0.08539,0.02329 -0.38712,0.08734 -0.68885,0.13392z"/>
    <path stroke="null" fill="#ffffff" id="svg_48" d="m151.40551,99.7805c-0.47252,0.5706 -2.3398,2.96363 -4.12739,5.3159s-4.49174,5.79916 -5.99468,7.66817l-2.7497,3.38284l0.85964,0.68123c1.67373,1.36245 4.7707,4.23874 7.73103,7.22566l3.05142,3.0335l3.50117,-3.91269c1.9356,-2.15431 4.55436,-5.0306 5.84097,-6.41634c1.26953,-1.38574 2.29995,-2.59099 2.29995,-2.67833c0,-0.15138 -8.24909,-13.8225 -8.93794,-14.78902c-0.23341,-0.30859 -0.44974,-0.5706 -0.51806,-0.5706s-0.49529,0.45997 -0.9678,1.05386l0.01139,0.00582z"/>
    <path stroke="null" fill="#ffffff" id="svg_49" d="m111.70853,103.84457c-2.51629,2.52694 -2.94326,3.07425 -3.43854,4.32608c-0.6433,1.60117 -3.0742,9.7526 -3.88829,13.09469c-1.54848,6.30571 -3.22221,15.42367 -3.09127,16.9608c0.06262,0.79185 0.14802,0.8559 2.29995,2.1776c1.22399,0.76856 2.57891,1.47308 3.00588,1.60117c0.42697,0.11063 1.80467,0.22125 3.09127,0.22125l2.29995,0l3.37023,-4.34937c2.94326,-3.77877 7.49762,-9.51388 14.63089,-18.41059c1.07597,-1.36245 1.97546,-2.57352 1.97546,-2.70162c0,-0.30859 -1.44032,-1.64775 -6.01745,-5.56044c-2.19179,-1.8923 -5.63033,-4.96655 -7.66841,-6.85302l-3.67196,-3.42942l-2.89771,2.92287z"/>
    <path stroke="null" fill="#ffffff" id="svg_50" d="m97.68109,119.40216c-5.71573,6.81227 -9.96836,12.10487 -9.96836,12.41346c0.02277,0.11063 0.71162,0.52984 1.56556,0.94324s2.85786,1.36245 4.4462,2.13102c2.85786,1.38574 2.89771,1.40321 3.05142,0.92577c0.08539,-0.2853 0.60345,-2.92287 1.13859,-5.8865s1.46309,-7.29553 2.06085,-9.6478c0.58068,-2.35227 1.03042,-4.34937 0.99057,-4.48329s-1.52571,1.49637 -3.28483,3.6041z"/>
    <path stroke="null" fill="#ffffff" id="svg_51" d="m162.23351,120.63652c-4.50882,4.7453 -9.00056,9.86323 -9.00056,10.30574c0,0.52984 7.62856,10.06119 8.55082,10.67837c0.53514,0.34935 1.30938,0.39593 8.91517,0.39593c4.57714,0 8.31171,-0.04658 8.31171,-0.11063c0,-0.11063 -13.1678,-21.46737 -13.94205,-22.562c-0.30173,-0.45997 -0.60345,-0.83261 -0.66608,-0.83261s-1.03042,0.96653 -2.16902,2.13102l0,-0.00582z"/>
    <path stroke="null" fill="#ffffff" id="svg_52" d="m133.40439,122.4997c-3.88829,4.80934 -13.40691,16.78612 -14.32917,18.03795c-0.49529,0.70452 -0.88241,1.31587 -0.81409,1.36245c0.21633,0.23872 18.64443,0.13392 19.07709,-0.11063c0.58068,-0.30859 9.45031,-10.70166 9.45031,-11.05101c0,-0.87919 -10.20178,-10.70166 -11.12973,-10.70166c-0.13094,0 -1.13859,1.11791 -2.25441,2.4629z"/>
    <path stroke="null" fill="#ffffff" id="svg_53" d="m27.38449,121.11978c-0.85964,0.11063 -1.20121,0.26201 -1.48017,0.68123c-0.49529,0.70452 -8.63621,13.95059 -10.76538,17.51393c-0.90518,1.49637 -1.56556,2.7482 -1.52571,2.78895c0.17079,0.17467 13.61755,0.41922 14.41456,0.26201l0.75147,-0.13392l0.14802,-2.70162c0.19356,-3.35955 0.40989,-5.40323 1.18413,-11.47023c0.34158,-2.66086 0.68885,-5.36248 0.77424,-5.99712l0.13094,-1.1412l-1.24676,0.02329c-0.68885,0.02329 -1.75912,0.11063 -2.38535,0.17467z"/>
    <path stroke="null" fill="#ffffff" id="svg_54" d="m35.5311,122.28427c-0.9678,5.84574 -1.91283,14.14855 -1.99823,17.64202l-0.06262,2.41632l11.49408,0.06405c6.31349,0.02329 11.81288,0 12.22277,-0.06405l0.7287,-0.13392l-0.14802,-1.69433c-0.08539,-0.92577 -0.3245,-3.58081 -0.55791,-5.86903c-0.21633,-2.30569 -0.49529,-5.25185 -0.62053,-6.56772c-0.10817,-1.31587 -0.27895,-2.4629 -0.38712,-2.55023c-0.21633,-0.19796 -11.96659,-3.24893 -15.57592,-4.06407c-1.39477,-0.30859 -3.05142,-0.54731 -3.69473,-0.54731l-1.16136,0l-0.2391,1.36245l0,0.00582z"/>
    <path stroke="null" fill="#ffffff" id="svg_55" d="m61.28603,128.34544c0,1.7118 0.83686,10.96367 1.20121,13.15874l0.10817,0.72781l4.66253,0l0.13094,-2.15431c0.13094,-1.84572 0.49529,-5.77587 0.92226,-9.62451l0.10817,-1.11791l-2.21456,-0.79185c-1.22399,-0.45997 -2.83509,-0.94324 -3.56379,-1.11791l-1.35492,-0.30859l0,1.22854z"/>
    <path stroke="null" fill="#ffffff" id="svg_56" d="m72.80288,131.40223c-0.14802,0.52984 -0.71162,6.25913 -0.88241,8.91999l-0.10817,2.15431l0.79701,-0.13392c0.44974,-0.08734 0.9678,-0.19796 1.18413,-0.23872c0.40989,-0.11063 6.01745,-7.69146 6.0573,-8.17472c0.02277,-0.34935 -2.12917,-1.38574 -4.89594,-2.32898c-1.99823,-0.68123 -1.99823,-0.68123 -2.14624,-0.19796l-0.00569,0z"/>
    <path stroke="null" fill="#ffffff" id="svg_57" d="m148.26869,136.38625c-1.74204,1.90976 -4.49174,5.27514 -4.49174,5.49057c0,0.06405 2.6643,0.13392 5.90929,0.13392s5.90929,-0.08734 5.90929,-0.17467c0,-0.19796 -5.24321,-6.96365 -5.52217,-7.13832c-0.08539,-0.04658 -0.90518,0.70452 -1.80467,1.69433l0,-0.00582z"/>
    <path stroke="null" fill="#ffffff" id="svg_58" d="m83.75613,136.74142c-0.42697,0.50655 -1.52571,1.90976 -2.4252,3.14412l-1.63388,2.24164l8.11815,0.06405c4.46897,0.02329 8.18647,-0.02329 8.24909,-0.08734s-0.21633,-0.43668 -0.66608,-0.81514c-1.11582,-1.01311 -9.83743,-5.42652 -10.67429,-5.42652c-0.10817,0 -0.53514,0.39593 -0.9678,0.87919z"/>
   </g>
  </g>
 </g>
</svg>