<svg aria-hidden="true" style="position: absolute; width: 0; height: 0; overflow: hidden;" version="1.1" xmlns="http://www.w3.org/2000/svg" xmlns:xlink="http://www.w3.org/1999/xlink">
<defs>
<symbol id="icon-logo" width="150" viewBox="0 0 39 32">
<path d="M17.868 1.389c-0.411 0.657-0.891 1.419-1.064 1.694-0.174 0.272-0.313 0.513-0.313 0.532 0 0.038 0.623-0.049 1.377-0.196 0.272-0.053 0.736-0.14 1.034-0.192s0.574-0.113 0.611-0.136c0.075-0.038 0.275-0.332 0.411-0.6l0.079-0.159-0.479-0.777c-0.664-1.083-0.849-1.366-0.875-1.366-0.015 0-0.366 0.54-0.781 1.2z"></path>
<path d="M20.347 3.755c-0.238 0.057-0.358 0.159-0.487 0.415-0.053 0.102-0.241 0.442-0.419 0.755-0.725 1.268-2.019 4.094-1.879 4.094 0.083 0 1.562-0.792 2.381-1.275 0.928-0.547 2.17-1.336 2.43-1.54 0.015-0.011-0.102-0.208-0.762-1.279-0.615-0.996-0.717-1.132-0.864-1.185-0.14-0.049-0.143-0.049-0.4 0.015z"></path>
<path d="M18.585 4.094c-0.143 0.030-0.774 0.136-1.396 0.242s-1.185 0.215-1.249 0.245c-0.083 0.038-0.185 0.159-0.34 0.408-0.121 0.192-0.475 0.758-0.789 1.257s-0.589 0.951-0.611 1.008c-0.041 0.094-0.034 0.121 0.094 0.287 0.075 0.102 0.532 0.608 1.008 1.121 0.479 0.513 0.879 0.951 0.894 0.974 0.041 0.068 0.2-0.041 0.287-0.196 0.041-0.075 0.177-0.4 0.302-0.721 0.494-1.283 1.264-2.925 1.989-4.245 0.113-0.208 0.208-0.389 0.208-0.408 0-0.034-0.075-0.030-0.396 0.030z"></path>
<path d="M22.208 7.287c-1.543 0.989-2.849 1.743-4.177 2.411-0.887 0.449-1.075 0.585-1.041 0.732 0.008 0.026 0.355 0.4 0.77 0.83 0.506 0.517 0.785 0.777 0.838 0.777 0.094 0 4.019-1.23 4.166-1.306 0.113-0.060 0.113-0.057 0.687-1.121 0.223-0.411 0.415-0.804 0.423-0.868 0.019-0.128 0.008-0.155-0.566-1.083-0.347-0.559-0.464-0.717-0.525-0.713-0.026 0-0.283 0.155-0.574 0.34z"></path>
<path d="M13.517 8.309c-0.083 0.132-0.358 0.57-0.611 0.974-0.257 0.404-0.596 0.94-0.755 1.189-0.317 0.491-0.472 0.774-0.426 0.774 0.060 0 0.762-0.196 1.238-0.347 0.687-0.215 1.589-0.536 2.068-0.736l0.404-0.17-0.117-0.14c-0.068-0.075-0.336-0.366-0.6-0.645s-0.6-0.649-0.751-0.823c-0.151-0.17-0.279-0.309-0.283-0.309-0.008 0-0.083 0.106-0.166 0.234z"></path>
<path d="M24.291 9.706c-0.136 0.238-0.291 0.551-0.291 0.592 0 0.019 0.109 0.004 0.241-0.034 0.404-0.113 0.513-0.162 0.513-0.226-0.004-0.068-0.268-0.46-0.325-0.479-0.026-0.008-0.087 0.057-0.14 0.147z"></path>
<path d="M15.638 10.789c-0.208 0.079-0.411 0.162-0.453 0.185-0.294 0.159-2.611 0.898-3.555 1.14-0.174 0.041-0.381 0.106-0.464 0.14-0.132 0.053-0.147 0.072-0.147 0.196 0 0.136 0.253 1.664 0.279 1.691 0.019 0.023 1.155-0.283 2.74-0.736l1.302-0.37 0.087-0.317c0.049-0.177 0.208-0.698 0.355-1.159 0.143-0.46 0.257-0.857 0.249-0.875-0.004-0.019-0.181 0.026-0.392 0.106z"></path>
<path d="M24.981 10.875c-0.608 0.17-1.468 0.468-1.543 0.536-0.094 0.083-0.834 1.543-1.381 2.721-0.226 0.483-0.34 0.774-0.351 0.894-0.011 0.102 0 0.181 0.019 0.181s0.272-0.215 0.558-0.483c1.196-1.102 2.491-2.226 3.291-2.853l0.234-0.181-0.136-0.215c-0.075-0.117-0.196-0.309-0.272-0.43-0.143-0.23-0.174-0.242-0.419-0.17z"></path>
<path d="M16.611 11.574c-0.121 0.332-0.309 0.992-0.309 1.075 0 0.068 0.015 0.072 0.14 0.049 0.147-0.026 0.894-0.245 1.079-0.317 0.057-0.023 0.102-0.057 0.102-0.075 0-0.045-0.864-0.947-0.906-0.947-0.015 0-0.064 0.098-0.106 0.215z"></path>
<path d="M22.132 11.792c-0.019 0.008-0.317 0.102-0.66 0.208-1.045 0.325-2.264 0.717-2.264 0.732 0 0.004 0.4 0.396 0.894 0.872l0.891 0.86 0.094-0.185c0.053-0.102 0.219-0.449 0.366-0.77 0.151-0.321 0.4-0.845 0.558-1.162 0.287-0.57 0.298-0.615 0.121-0.555z"></path>
<path d="M25.925 12.608c-0.638 0.494-2.245 1.906-3.189 2.808l-0.377 0.358 0.264 0.245c0.792 0.743 2.683 2.358 2.755 2.358 0.068 0 0.683-0.747 1.879-2.275l0.706-0.898-0.113-0.196c-0.419-0.736-1.581-2.562-1.642-2.577-0.019-0.008-0.147 0.075-0.283 0.177z"></path>
<path d="M17.868 13.109c-0.226 0.068-0.74 0.223-1.14 0.347l-0.725 0.223-0.226 0.925c-0.415 1.694-0.77 3.445-1.083 5.321-0.113 0.687-0.113 0.743-0.004 0.777 0.045 0.011 0.385 0.14 0.751 0.283s0.706 0.26 0.755 0.26c0.106 0 0.238-0.132 0.675-0.679 0.645-0.811 1.54-1.849 2.513-2.913 0.313-0.347 0.608-0.694 0.645-0.774 0.094-0.185 0.611-1.517 0.611-1.574 0-0.038-2.313-2.328-2.347-2.325-0.008 0.004-0.196 0.060-0.426 0.128z"></path>
<path d="M10.219 13.555c-0.072 0.098-0.34 0.521-0.54 0.857-0.026 0.045 0.004 0.049 0.181 0.030 0.336-0.041 0.589-0.109 0.611-0.17s-0.091-0.766-0.132-0.811c-0.015-0.015-0.068 0.026-0.121 0.094z"></path>
<path d="M14.925 13.989c-0.041 0.011-0.449 0.125-0.906 0.257s-1.128 0.317-1.491 0.415c-0.362 0.094-0.751 0.2-0.864 0.23l-0.204 0.057 0.026 0.291c0.015 0.159 0.087 0.604 0.159 0.989 0.2 1.049 0.343 1.872 0.449 2.566 0.053 0.343 0.117 0.74 0.143 0.883l0.049 0.257 0.751 0.234c0.732 0.23 0.755 0.234 0.781 0.159 0.015-0.045 0.075-0.411 0.14-0.815 0.060-0.404 0.226-1.313 0.362-2.019 0.226-1.162 0.355-1.762 0.638-2.981 0.053-0.23 0.098-0.445 0.098-0.483 0-0.068-0.004-0.068-0.132-0.038z"></path>
<path d="M10.491 15.159c-0.053 0.008-0.37 0.057-0.706 0.109-0.34 0.049-0.638 0.102-0.664 0.113-0.030 0.011-0.087 0.068-0.132 0.125-0.079 0.109-0.826 1.283-0.921 1.445-0.038 0.064-0.049 0.328-0.049 1.038v0.951l0.321 0.041c0.43 0.060 0.951 0.177 2.106 0.472 0.528 0.136 0.974 0.238 0.981 0.226 0.023-0.023-0.019-0.294-0.389-2.351-0.362-2.049-0.392-2.2-0.426-2.192-0.015 0.004-0.068 0.015-0.121 0.023z"></path>
<path d="M28.245 16.143c-0.083 0.098-0.411 0.509-0.725 0.913s-0.789 0.996-1.053 1.317l-0.483 0.581 0.151 0.117c0.294 0.234 0.838 0.728 1.358 1.241l0.536 0.521 0.615-0.672c0.34-0.37 0.8-0.864 1.026-1.102 0.223-0.238 0.404-0.445 0.404-0.46 0-0.026-1.449-2.374-1.57-2.54-0.041-0.053-0.079-0.098-0.091-0.098s-0.087 0.079-0.17 0.181z"></path>
<path d="M21.272 16.841c-0.442 0.434-0.517 0.528-0.604 0.743-0.113 0.275-0.54 1.675-0.683 2.249-0.272 1.083-0.566 2.649-0.543 2.913 0.011 0.136 0.026 0.147 0.404 0.374 0.215 0.132 0.453 0.253 0.528 0.275 0.075 0.019 0.317 0.038 0.543 0.038h0.404l0.592-0.747c0.517-0.649 1.317-1.634 2.57-3.162 0.189-0.234 0.347-0.442 0.347-0.464 0-0.053-0.253-0.283-1.057-0.955-0.385-0.325-0.989-0.853-1.347-1.177l-0.645-0.589-0.509 0.502z"></path>
<path d="M18.808 19.513c-1.004 1.17-1.751 2.079-1.751 2.132 0.004 0.019 0.125 0.091 0.275 0.162s0.502 0.234 0.781 0.366c0.502 0.238 0.509 0.241 0.536 0.159 0.015-0.049 0.106-0.502 0.2-1.011s0.257-1.253 0.362-1.657c0.102-0.404 0.181-0.747 0.174-0.77s-0.268 0.257-0.577 0.619z"></path>
<path d="M30.147 19.725c-0.792 0.815-1.581 1.694-1.581 1.77 0 0.091 1.34 1.728 1.502 1.834 0.094 0.060 0.23 0.068 1.566 0.068 0.804 0 1.46-0.008 1.46-0.019 0-0.019-2.313-3.687-2.449-3.875-0.053-0.079-0.106-0.143-0.117-0.143s-0.181 0.166-0.381 0.366z"></path>
<path d="M25.083 20.045c-0.683 0.826-2.355 2.883-2.517 3.098-0.087 0.121-0.155 0.226-0.143 0.234 0.038 0.041 3.275 0.023 3.351-0.019 0.102-0.053 1.66-1.838 1.66-1.898 0-0.151-1.792-1.838-1.955-1.838-0.023 0-0.2 0.192-0.396 0.423z"></path>
<path d="M6.46 19.808c-0.151 0.019-0.211 0.045-0.26 0.117-0.087 0.121-1.517 2.396-1.891 3.008-0.159 0.257-0.275 0.472-0.268 0.479 0.030 0.030 2.392 0.072 2.532 0.045l0.132-0.023 0.026-0.464c0.034-0.577 0.072-0.928 0.208-1.97 0.060-0.457 0.121-0.921 0.136-1.030l0.023-0.196-0.219 0.004c-0.121 0.004-0.309 0.019-0.419 0.030z"></path>
<path d="M7.891 20.008c-0.17 1.004-0.336 2.43-0.351 3.030l-0.011 0.415 2.019 0.011c1.109 0.004 2.075 0 2.147-0.011l0.128-0.023-0.026-0.291c-0.015-0.159-0.057-0.615-0.098-1.008-0.038-0.396-0.087-0.902-0.109-1.128-0.019-0.226-0.049-0.423-0.068-0.438-0.038-0.034-2.102-0.558-2.736-0.698-0.245-0.053-0.536-0.094-0.649-0.094h-0.204l-0.042 0.234z"></path>
<path d="M12.415 21.049c0 0.294 0.147 1.883 0.211 2.26l0.019 0.125h0.819l0.023-0.37c0.023-0.317 0.087-0.992 0.162-1.653l0.019-0.192-0.389-0.136c-0.215-0.079-0.498-0.162-0.626-0.192l-0.238-0.053v0.211z"></path>
<path d="M14.438 21.574c-0.026 0.091-0.125 1.075-0.155 1.532l-0.019 0.37 0.14-0.023c0.079-0.015 0.17-0.034 0.208-0.041 0.072-0.019 1.057-1.321 1.064-1.404 0.004-0.060-0.374-0.238-0.86-0.4-0.351-0.117-0.351-0.117-0.377-0.034z"></path>
<path d="M27.694 22.43c-0.306 0.328-0.789 0.906-0.789 0.943 0 0.011 0.468 0.023 1.038 0.023s1.038-0.015 1.038-0.030c0-0.034-0.921-1.196-0.97-1.226-0.015-0.008-0.159 0.121-0.317 0.291z"></path>
<path d="M16.362 22.491c-0.075 0.087-0.268 0.328-0.426 0.54l-0.287 0.385 1.426 0.011c0.785 0.004 1.438-0.004 1.449-0.015s-0.038-0.075-0.117-0.14c-0.196-0.174-1.728-0.932-1.875-0.932-0.019 0-0.094 0.068-0.17 0.151z"></path>
<path d="M20.732 27.211c-0.223 0.064-0.475 0.268-0.592 0.479-0.094 0.17-0.113 0.245-0.113 0.46 0 0.498 0.196 0.721 1.087 1.249 0.777 0.46 0.962 0.657 0.962 1.023 0 0.389-0.26 0.589-0.777 0.592-0.585 0.008-0.857-0.181-1.094-0.755l-0.147-0.355-0.023 0.223c-0.034 0.317 0.011 0.608 0.113 0.717 0.226 0.238 0.74 0.415 1.211 0.411 0.747-0.004 1.208-0.4 1.211-1.041 0.004-0.494-0.151-0.672-1.038-1.208-0.86-0.521-0.989-0.638-1.060-0.962-0.038-0.185 0.098-0.438 0.306-0.558 0.132-0.079 0.215-0.098 0.423-0.098 0.543-0.004 0.83 0.196 1.041 0.728 0.060 0.155 0.125 0.294 0.14 0.313 0.015 0.015 0.038-0.079 0.053-0.215 0.038-0.362-0.049-0.634-0.253-0.781-0.241-0.174-0.581-0.264-0.989-0.26-0.189 0-0.396 0.019-0.46 0.038z"></path>
<path d="M0.415 27.238c0 0.019 0.041 0.053 0.091 0.075 0.162 0.072 0.355 0.268 0.438 0.453 0.079 0.162 0.853 2.008 1.155 2.751 0.068 0.17 0.174 0.408 0.234 0.525l0.109 0.219 0.087-0.162c0.136-0.272 1.536-3.562 1.577-3.717l0.042-0.14-0.121 0.011c-0.117 0.011-0.117 0.015-0.687 1.37-0.592 1.415-0.679 1.604-0.732 1.604-0.042 0-0.226-0.404-0.683-1.487-0.208-0.498-0.415-0.959-0.457-1.026-0.132-0.219-0.396-0.423-0.604-0.464-0.226-0.049-0.449-0.053-0.449-0.011z"></path>
<path d="M7.064 27.272c-0.045 0.038-0.177 0.298-0.294 0.577-0.343 0.826-0.687 1.642-0.94 2.226-0.204 0.472-0.434 1.064-0.434 1.113 0 0.011 0.057-0.011 0.128-0.045 0.136-0.064 0.211-0.2 0.457-0.834l0.106-0.272h1.679l0.117 0.294c0.257 0.626 0.521 0.838 1.053 0.838 0.151 0 0.196-0.015 0.196-0.057 0-0.034-0.045-0.075-0.102-0.094-0.208-0.075-0.287-0.136-0.377-0.275-0.049-0.079-0.396-0.894-0.77-1.811s-0.691-1.679-0.709-1.698c-0.015-0.015-0.064 0-0.109 0.038zM7.147 28.547c0.098 0.223 0.253 0.592 0.34 0.823l0.159 0.423-0.264 0.030c-0.242 0.030-1.147 0.008-1.181-0.026-0.015-0.011 0.377-0.962 0.589-1.43 0.064-0.143 0.132-0.249 0.147-0.238 0.019 0.011 0.113 0.2 0.211 0.419z"></path>
<path d="M24.702 27.241c-0.053 0.023-0.294 0.555-0.891 1.97-0.785 1.872-0.811 1.94-0.725 1.951 0.121 0.019 0.174-0.038 0.275-0.287 0.045-0.117 0.151-0.355 0.226-0.525l0.143-0.313h1.645l0.109 0.275c0.14 0.347 0.291 0.566 0.483 0.706 0.177 0.128 0.309 0.159 0.592 0.143l0.208-0.011-0.234-0.17c-0.294-0.211-0.298-0.223-1.083-2.151-0.328-0.8-0.611-1.491-0.638-1.532-0.030-0.057-0.060-0.072-0.113-0.057zM24.63 28.234c0.034 0.068 0.192 0.445 0.351 0.841l0.291 0.717-0.249 0.030c-0.211 0.026-1.17 0.004-1.2-0.026-0.045-0.045 0.664-1.683 0.728-1.683 0.008 0 0.041 0.057 0.079 0.121z"></path>
<path d="M12.302 27.272c0.030 0.011 0.143 0.064 0.253 0.113 0.166 0.075 0.204 0.113 0.238 0.23 0.023 0.087 0.038 0.796 0.038 1.845v1.709h1.053c0.668 0 1.094-0.015 1.17-0.041 0.14-0.049 0.268-0.253 0.358-0.558 0.034-0.113 0.060-0.215 0.060-0.223 0-0.011-0.113 0.098-0.253 0.245-0.321 0.328-0.396 0.351-1.234 0.351h-0.626v-1.649l0.143-0.026c0.075-0.011 0.434-0.023 0.792-0.023h0.649v-0.189h-0.536c-0.298 0-0.653-0.011-0.792-0.026l-0.257-0.023v-1.525l0.143-0.026c0.385-0.064 1.268 0.008 1.438 0.117 0.045 0.030 0.143 0.177 0.215 0.325l0.125 0.272 0.004-0.294c0-0.347-0.068-0.54-0.208-0.592-0.060-0.023-0.645-0.038-1.464-0.034-0.751 0-1.34 0.011-1.309 0.023z"></path>
<path d="M29.951 27.555c-0.015 0.174-0.026 0.826-0.026 1.457 0 0.77-0.011 1.136-0.038 1.121-0.023-0.015-0.279-0.325-0.574-0.691-1.494-1.868-1.645-2.034-1.913-2.117-0.162-0.045-0.759-0.057-0.759-0.011 0 0.015 0.094 0.053 0.215 0.083 0.238 0.064 0.336 0.162 0.389 0.4 0.019 0.079 0.038 0.864 0.038 1.743v1.596l0.087-0.011 0.083-0.011 0.011-1.472c0.004-0.808 0.023-1.483 0.041-1.502 0.038-0.038 0.249 0.208 0.815 0.936 0.468 0.6 1.238 1.543 1.558 1.902l0.215 0.245 0.026-0.17c0.011-0.091 0.026-0.928 0.026-1.857 0.004-1.392-0.008-1.713-0.049-1.819-0.030-0.072-0.072-0.132-0.091-0.132s-0.045 0.14-0.057 0.309z"></path>
<path d="M9.177 27.317c-0.034 0.023 0.004 0.045 0.121 0.075 0.317 0.079 0.306 0 0.317 2.011l0.011 1.766h2.6v-0.226h-0.962c-0.758 0-0.992-0.011-1.094-0.053-0.072-0.030-0.132-0.060-0.132-0.068s0.019-0.072 0.041-0.143c0.026-0.087 0.038-0.642 0.034-1.623-0.004-1.657-0.011-1.706-0.234-1.751-0.17-0.034-0.645-0.026-0.702 0.011z"></path>
<path d="M15.826 27.309c0.015 0.015 0.106 0.072 0.204 0.125 0.094 0.053 0.196 0.136 0.223 0.189 0.038 0.072 0.049 0.449 0.049 1.509 0 0.777 0.011 1.555 0.026 1.725l0.023 0.313h0.219c0.125 0 0.226-0.004 0.23-0.011 0.004-0.004 0.015-0.434 0.026-0.951l0.023-0.943 0.849 0.853c1.053 1.064 1.155 1.121 1.86 1.098 0.098-0.004 0.177-0.019 0.177-0.038 0-0.015-0.159-0.121-0.347-0.234-0.366-0.219-0.585-0.419-1.509-1.404-0.268-0.279-0.483-0.528-0.483-0.547s0.321-0.351 0.709-0.736c0.679-0.672 0.721-0.706 0.936-0.766 0.121-0.034 0.245-0.068 0.272-0.075 0.023-0.011 0.045-0.045 0.045-0.079 0-0.102-0.494-0.041-0.717 0.087-0.094 0.053-0.536 0.457-0.981 0.894l-0.811 0.796-0.019-0.755c-0.026-1.049-0.038-1.060-0.713-1.072-0.174 0-0.306 0.008-0.291 0.023z"></path>
<path d="M30.841 27.309c0.019 0.015 0.102 0.064 0.189 0.106s0.177 0.117 0.204 0.17c0.038 0.072 0.049 0.528 0.049 1.838v1.747h0.728c0.396 0 0.83-0.019 0.962-0.038 0.725-0.117 1.283-0.547 1.521-1.162 0.102-0.264 0.14-0.936 0.075-1.26-0.136-0.649-0.611-1.125-1.343-1.332-0.185-0.057-0.434-0.072-1.321-0.083-0.6-0.011-1.079-0.004-1.064 0.015zM32.725 27.475c0.789 0.17 1.272 0.826 1.279 1.732 0.004 0.702-0.245 1.211-0.77 1.57-0.26 0.174-0.709 0.241-1.223 0.181l-0.2-0.026v-1.694c0-1.415 0.008-1.698 0.053-1.713 0.211-0.079 0.604-0.102 0.86-0.049z"></path>
<path d="M35.057 27.294c0 0.011 0.075 0.057 0.162 0.098 0.279 0.136 0.272 0.079 0.283 2.034l0.011 1.747 0.506-0.023-0.011-0.283c-0.004-0.155 0-0.558 0.015-0.898l0.023-0.611h0.125c0.249 0 0.287 0.041 0.706 0.743 0.615 1.038 0.762 1.147 1.472 1.109 0.151-0.008 0.098-0.102-0.117-0.211-0.094-0.049-0.234-0.155-0.313-0.234-0.181-0.189-0.902-1.389-0.853-1.423 0.008-0.008 0.106-0.049 0.223-0.094 0.264-0.106 0.464-0.268 0.574-0.468 0.064-0.125 0.083-0.223 0.083-0.46 0-0.26-0.015-0.325-0.106-0.479-0.125-0.211-0.291-0.347-0.562-0.457-0.185-0.072-0.287-0.083-1.208-0.094-0.559-0.008-1.011-0.004-1.011 0.004zM36.74 27.491c0.374 0.109 0.653 0.457 0.657 0.811 0 0.351-0.151 0.596-0.472 0.766-0.208 0.106-0.694 0.136-0.83 0.049l-0.094-0.060v-0.675c0-0.747 0.019-0.898 0.109-0.921 0.14-0.038 0.453-0.023 0.63 0.030z"></path>
<path d="M4.377 30.717c-0.155 0.155-0.128 0.392 0.053 0.513 0.279 0.181 0.574-0.219 0.359-0.491-0.098-0.125-0.298-0.136-0.411-0.023z"></path>
</symbol>
<symbol viewBox="0 0 60 30" id="en"><clipPath id="a"><path d="M0 0v30h60V0z"/></clipPath><clipPath id="b"><path d="M30 15h30v15zv15H0zH0V0zV0h30z"/></clipPath><g clip-path="url(#a)"><path d="M0 0v30h60V0z" fill="#012169"/><path d="M0 0l60 30m0-30L0 30" stroke="#fff" stroke-width="6"/><path d="M0 0l60 30m0-30L0 30" clip-path="url(#b)" stroke="#C8102E" stroke-width="4"/><path d="M30 0v30M0 15h60" stroke="#fff" stroke-width="10"/><path d="M30 0v30M0 15h60" stroke="#C8102E" stroke-width="6"/></g></symbol><symbol viewBox="0 0 3 2" id="ua"><path fill="#0057B7" d="M0 0h3v2H0z"/><path fill="gold" d="M0 1h3v1H0z"/></symbol>
</defs>
</svg>
